# xmcd CD database file
#
# Track frame offsets:
#	150
#	74730
#	101035
#	133365
#	169845
#	213802
#
# Disc length: 3387 seconds
#
# Revision: 5
# Processed by: cddbd v1.4PL0 Copyright (c) Steve Scherf et al.
# Submitted via: Feurio! 1.66 - http://www.feurio.com
#
DISCID=5d0d3906
DTITLE=Gov't Mule - Live At Roseland Ballrom
DYEAR=1996
DGENRE=blues
TTITLE0=Trane
TTITLE1=Temporary Saint
TTITLE2=Painted Silver Light
TTITLE3=Don't Step On The Grass Sam
TTITLE4=Kind of Bird
TTITLE5=Mule
EXTD=YEAR: 1996
EXTT0=
EXTT1=
EXTT2=
EXTT3=
EXTT4=
EXTT5=
PLAYORDER=
